# xmcd
#
# Track frame offsets:
#	150
#	16897
#	31082
#	43067
#	55935
#	72512
#	87360
#	104967
#	119595
#	133615
#	146492
#	160957
#
# Disc length: 2308 seconds
#
# Revision: 1
# Processed by: cddbd v1.4b42PL1 Copyright (c) Steve Scherf et al.
# Submitted via: audiograbber 1.80
#
DISCID=ae09020c
DTITLE=Tim Watson - One The Move with Black Creek
DYEAR=1900
DGENRE=
TTITLE0=Hey Good Lookin'
TTITLE1=Let Me Down
TTITLE2=Look From The Other Side
TTITLE3=Rainy Days
TTITLE4=Rocky Top
TTITLE5=Chasin' The Moon
TTITLE6=Devil Went Down To Georgia
TTITLE7=Lovin' On Borrowed Time
TTITLE8=I'm Keeping Your Memory Instead
TTITLE9=I'm On The Move
TTITLE10=Before You Say Goodbye
TTITLE11=Somebody Out There
EXTD=
EXTT0=
EXTT1=
EXTT2=
EXTT3=
EXTT4=
EXTT5=
EXTT6=
EXTT7=
EXTT8=
EXTT9=
EXTT10=
EXTT11=
PLAYORDER=
